<svg width="92" height="92" viewBox="0 0 92 92" fill="none" xmlns="http://www.w3.org/2000/svg">
<path d="M92 46.0281C91.8598 71.579 71.3915 92.0949 45.8374 91.9997C19.8478 91.8995 0.0752881 70.9227 0.000202565 46.2185C-0.074883 20.3019 20.7338 -0.198942 46.328 0.00145672C72.0222 0.201856 91.8699 20.9081 92 46.0281ZM45.9525 5.61764C23.7072 5.61764 4.95585 23.854 5.63662 47.3007C6.26234 68.8335 23.8374 86.5188 46.393 86.3785C68.273 86.2382 86.8341 68.1822 86.3285 45.0261C85.853 23.383 68.318 5.71283 45.9525 5.61764Z" fill="#E32126"/>
<path d="M45.7923 78.0469C44.1404 78.0319 42.5036 77.8766 40.9218 77.3756C39.0697 76.7844 37.5179 75.7624 36.5218 74.0439C35.9761 73.097 35.7259 72.0349 35.4756 70.9828C34.5796 67.2304 34.2392 63.4178 34.3343 59.5701C34.4244 55.8677 34.9249 52.2255 36.2465 48.7436C37.2326 46.1384 38.6292 43.7937 40.7866 41.96C42.9191 40.1464 45.3718 39.1645 48.17 38.9541C50.803 38.7537 53.3309 39.1545 55.8488 39.906C58.6269 40.7376 61.2299 41.945 63.7328 43.3779C66.6361 45.0362 69.3692 46.94 71.9171 49.1143C72.5929 49.6904 73.2536 50.2816 73.8943 50.8978C75.366 52.3157 75.9016 54.0591 75.7164 56.0882C75.5212 58.1874 74.7653 60.0761 73.7191 61.8647C72.2174 64.4298 70.2952 66.6492 68.1128 68.6532C65.7401 70.8325 63.1271 72.6662 60.2688 74.1592C57.4156 75.6521 54.4272 76.7694 51.2836 77.4607C49.907 77.7664 47.284 78.0569 45.8023 78.0569L45.7923 78.0469Z" fill="#E32126"/>
<path d="M74.1298 34.9361C74.1348 35.5222 74.1097 36.1485 73.9746 36.7697C73.6142 38.403 72.4879 39.6905 70.5857 39.8408C69.8048 39.9009 69.104 39.5653 68.4132 39.2747C67.2619 38.7937 66.2908 38.0272 65.4048 37.1555C63.1222 34.906 61.5354 32.2307 60.6194 29.1696C60.2139 27.8219 59.9586 26.4291 60.0637 25.0063C60.1238 24.1846 60.254 23.363 60.6444 22.6315C61.6355 20.7728 63.4075 20.2067 65.4649 21.0384C66.5561 21.4793 67.5573 22.0955 68.4132 22.9021C71.2214 25.5624 73.0886 28.7738 73.9195 32.5663C74.0847 33.3278 74.1448 34.1094 74.1348 34.931L74.1298 34.9361Z" fill="#E32126"/>
<path d="M53.5361 28.2427C53.5261 29.0894 53.3359 30.0213 52.9354 30.893C52.1996 32.4762 50.7279 33.1625 49.026 32.7667C47.6094 32.4411 46.4531 31.6445 45.3868 30.7227C43.3045 28.9191 41.8328 26.6696 40.7165 24.1696C40.0307 22.6315 39.6203 21.0233 39.4551 19.355C39.33 18.0675 39.4451 16.7999 40.0408 15.6176C40.7966 14.1146 42.3934 13.4382 44.0253 13.8641C45.542 14.2599 46.7935 15.0915 47.8947 16.1486C50.4426 18.5835 52.1696 21.5143 53.0706 24.9211C53.3459 25.9682 53.5061 27.0403 53.5311 28.2427H53.5361Z" fill="#E32126"/>
<path d="M35.2054 37.4961C35.2354 38.423 35.0452 39.2947 34.6298 40.1314C33.9189 41.5743 32.3972 42.3007 30.8454 41.935C29.2436 41.5542 27.8921 40.7326 26.6857 39.6454C24.6284 37.7917 23.0816 35.5673 21.9854 33.0323C21.2745 31.394 20.8491 29.6706 20.789 27.872C20.764 27.0604 20.8791 26.2738 21.1444 25.5073C21.3446 24.9261 21.67 24.4251 22.1255 23.9993C23.1267 23.0674 24.308 23.0574 25.5394 23.3129C26.4655 23.5083 27.2614 24.0093 28.0322 24.5303C30.1547 25.9732 31.7164 27.9221 32.9879 30.1164C33.949 31.7747 34.6448 33.5433 35.0152 35.427C35.1503 36.1084 35.2455 36.7947 35.2104 37.4911L35.2054 37.4961Z" fill="#E32126"/>
<path d="M29.649 56.5842C29.6741 57.7264 29.5589 58.8386 28.8982 59.8156C28.3225 60.6673 27.5667 61.1733 26.5004 61.2585C24.9887 61.3837 23.7523 60.7424 22.586 59.9408C20.2683 58.3427 18.6415 56.1483 17.355 53.6734C16.4039 51.8447 15.8083 49.9259 15.603 47.8718C15.4979 46.8147 15.603 45.7826 15.9584 44.8007C16.5141 43.2827 17.7655 42.3107 19.6827 42.5712C21.3696 42.7967 22.7161 43.7085 23.9275 44.8007C26.5705 47.1854 28.2825 50.1564 29.2636 53.5631C29.5489 54.5501 29.654 55.5571 29.644 56.5842H29.649Z" fill="#E32126"/>
</svg>
